<svg width="723" height="647" viewBox="0 0 723 647" fill="none" xmlns="http://www.w3.org/2000/svg">
<circle cx="361" cy="320" r="309" stroke="black" stroke-width="22"/>
<path d="M120 238C120 268.376 95.3757 293 65 293C34.6243 293 10 268.376 10 238C10 207.624 34.6243 183 65 183C95.3757 183 120 207.624 120 238Z" fill="#E77575" stroke="white" stroke-width="20"/>
<path d="M249 582C249 612.376 224.376 637 194 637C163.624 637 139 612.376 139 582C139 551.624 163.624 527 194 527C224.376 527 249 551.624 249 582Z" fill="#E77575" stroke="white" stroke-width="20"/>
<path d="M579 582C579 612.376 554.376 637 524 637C493.624 637 469 612.376 469 582C469 551.624 493.624 527 524 527C554.376 527 579 551.624 579 582Z" fill="#E77575" stroke="white" stroke-width="20"/>
<path d="M713 238C713 268.376 688.376 293 658 293C627.624 293 603 268.376 603 238C603 207.624 627.624 183 658 183C688.376 183 713 207.624 713 238Z" fill="#E77575" stroke="white" stroke-width="20"/>
<circle cx="524" cy="582" r="37" fill="#FF4D00" stroke="black" stroke-width="20"/>
<path d="M675.001 224.5C675.001 294.915 687.852 244.315 665.363 256.479C577.5 304 467 343.5 356.004 339.242C260 346.5 122 301.5 46.6446 256.479C42.4154 229.873 83.5005 286.415 83.5005 216L94.5004 224.5C94.5004 289.94 -7.74862 196.941 68.5017 243.214C162.5 287.5 248.17 316.5 356.004 316.5C463.838 316.5 535.5 291.5 628.504 249.742C704.754 203.469 665.363 266.94 665.363 201.5L675.001 224.5Z" fill="black"/>
<circle cx="65" cy="238" r="37" fill="#0EAFF4" stroke="black" stroke-width="20"/>
<circle cx="658" cy="238" r="37" fill="#4EFF95" stroke="black" stroke-width="20"/>
<rect x="348.514" y="327.319" width="21" height="261.003" transform="rotate(33.4431 348.514 327.319)" fill="black"/>
<rect x="348.678" y="338.888" width="21" height="261.003" transform="rotate(-33.44 348.678 338.888)" fill="black"/>
<circle cx="194" cy="582" r="37" fill="#FFC700" stroke="black" stroke-width="20"/>
<circle cx="358" cy="176" r="79" fill="#D065E1" stroke="black" stroke-width="20"/>
</svg>
