<svg width="35" height="35" viewBox="0 0 35 35" fill="none" xmlns="http://www.w3.org/2000/svg">
<path d="M5.83341 29.1666C5.03133 29.1666 4.3447 28.881 3.77352 28.3098C3.20234 27.7386 2.91675 27.052 2.91675 26.2499V8.74992C2.91675 7.94784 3.20234 7.2612 3.77352 6.69002C4.3447 6.11884 5.03133 5.83325 5.83341 5.83325H29.1667C29.9688 5.83325 30.6555 6.11884 31.2266 6.69002C31.7978 7.2612 32.0834 7.94784 32.0834 8.74992V26.2499C32.0834 27.052 31.7978 27.7386 31.2266 28.3098C30.6555 28.881 29.9688 29.1666 29.1667 29.1666H5.83341ZM17.5001 18.9583L5.83341 11.6666V26.2499H29.1667V11.6666L17.5001 18.9583ZM17.5001 16.0416L29.1667 8.74992H5.83341L17.5001 16.0416ZM5.83341 11.6666V8.74992V26.2499V11.6666Z" fill="black"/>
</svg>
