<svg width="45" height="45" viewBox="0 0 45 45" fill="none" xmlns="http://www.w3.org/2000/svg">
<path d="M22.5 41.25C19.1875 41.25 16.4844 40.7266 14.3906 39.6797C12.2969 38.6328 11.25 37.2812 11.25 35.625C11.25 34.5312 11.7031 33.5781 12.6094 32.7656C13.5156 31.9531 14.7656 31.3125 16.3594 30.8438L17.4375 34.4062C16.9062 34.5625 16.4219 34.7578 15.9844 34.9922C15.5469 35.2266 15.25 35.4375 15.0938 35.625C15.5 36.125 16.4375 36.5625 17.9062 36.9375C19.375 37.3125 20.9062 37.5 22.5 37.5C24.0938 37.5 25.6328 37.3125 27.1172 36.9375C28.6016 36.5625 29.5469 36.125 29.9531 35.625C29.7969 35.4375 29.5 35.2266 29.0625 34.9922C28.625 34.7578 28.1406 34.5625 27.6094 34.4062L28.6875 30.8438C30.2812 31.3125 31.5234 31.9531 32.4141 32.7656C33.3047 33.5781 33.75 34.5312 33.75 35.625C33.75 37.2812 32.7031 38.6328 30.6094 39.6797C28.5156 40.7266 25.8125 41.25 22.5 41.25ZM22.5 28.7344C23.0625 27.7031 23.6562 26.7578 24.2812 25.8984C24.9062 25.0391 25.5156 24.2188 26.1094 23.4375C27.2656 21.9375 28.1875 20.5859 28.875 19.3828C29.5625 18.1797 29.9062 16.6875 29.9062 14.9062C29.9062 12.8438 29.1875 11.0938 27.75 9.65625C26.3125 8.21875 24.5625 7.5 22.5 7.5C20.4375 7.5 18.6875 8.21875 17.25 9.65625C15.8125 11.0938 15.0938 12.8438 15.0938 14.9062C15.0938 16.6875 15.4375 18.1797 16.125 19.3828C16.8125 20.5859 17.7344 21.9375 18.8906 23.4375C19.4844 24.2188 20.0938 25.0391 20.7188 25.8984C21.3438 26.7578 21.9375 27.7031 22.5 28.7344ZM22.5 35.625C22.1562 35.625 21.8438 35.5234 21.5625 35.3203C21.2812 35.1172 21.0781 34.8438 20.9531 34.5C20.2344 32.2812 19.3281 30.4219 18.2344 28.9219C17.1406 27.4219 16.0781 25.9844 15.0469 24.6094C14.0469 23.2344 13.1797 21.8125 12.4453 20.3438C11.7109 18.875 11.3438 17.0625 11.3438 14.9062C11.3438 11.7812 12.4219 9.14062 14.5781 6.98438C16.7344 4.82812 19.375 3.75 22.5 3.75C25.625 3.75 28.2656 4.82812 30.4219 6.98438C32.5781 9.14062 33.6562 11.7812 33.6562 14.9062C33.6562 17.0625 33.2969 18.875 32.5781 20.3438C31.8594 21.8125 30.9844 23.2344 29.9531 24.6094C28.9531 25.9844 27.8984 27.4219 26.7891 28.9219C25.6797 30.4219 24.7656 32.2812 24.0469 34.5C23.9219 34.8438 23.7188 35.1172 23.4375 35.3203C23.1562 35.5234 22.8438 35.625 22.5 35.625ZM22.5 18.8906C23.5938 18.8906 24.5312 18.5 25.3125 17.7188C26.0938 16.9375 26.4844 16 26.4844 14.9062C26.4844 13.8125 26.0938 12.875 25.3125 12.0938C24.5312 11.3125 23.5938 10.9219 22.5 10.9219C21.4062 10.9219 20.4688 11.3125 19.6875 12.0938C18.9062 12.875 18.5156 13.8125 18.5156 14.9062C18.5156 16 18.9062 16.9375 19.6875 17.7188C20.4688 18.5 21.4062 18.8906 22.5 18.8906Z" fill="black"/>
</svg>
