<svg width="35" height="35" viewBox="0 0 35 35" fill="none" xmlns="http://www.w3.org/2000/svg">
<g clip-path="url(#clip0_145_38)">
<path d="M27.8921 20.417C29.7034 20.417 31.1717 21.8853 31.1717 23.6966V24.5358C31.1717 25.84 30.7056 27.1011 29.8576 28.0919C27.5689 30.7658 24.0876 32.0853 19.5007 32.0853C14.9129 32.0853 11.4333 30.7653 9.1491 28.0903C8.30361 27.1003 7.83911 25.841 7.83911 24.539V23.6966C7.83911 21.8853 9.30743 20.417 11.1187 20.417H27.8921ZM27.8921 22.6045H11.1187C10.5156 22.6045 10.0266 23.0935 10.0266 23.6966V24.539C10.0266 25.3202 10.3053 26.0758 10.8126 26.6698C12.6403 28.8102 15.5072 29.8978 19.5007 29.8978C23.494 29.8978 26.3634 28.8101 28.1957 26.6695C28.7046 26.0749 28.9842 25.3182 28.9842 24.5358V23.6966C28.9842 23.0935 28.4952 22.6045 27.8921 22.6045ZM19.5007 2.92383C23.5277 2.92383 26.7923 6.18842 26.7923 10.2155C26.7923 14.2426 23.5277 17.5072 19.5007 17.5072C15.4735 17.5072 12.2089 14.2426 12.2089 10.2155C12.2089 6.18842 15.4735 2.92383 19.5007 2.92383ZM19.5007 5.11133C16.6817 5.11133 14.3964 7.39655 14.3964 10.2155C14.3964 13.0345 16.6817 15.3197 19.5007 15.3197C22.3196 15.3197 24.6048 13.0345 24.6048 10.2155C24.6048 7.39655 22.3196 5.11133 19.5007 5.11133Z" fill="black"/>
</g>
<defs>
<clipPath id="clip0_145_38">
<rect width="35" height="35" fill="white"/>
</clipPath>
</defs>
</svg>
