<svg width="35" height="35" viewBox="0 0 35 35" fill="none" xmlns="http://www.w3.org/2000/svg">
<path d="M8.74992 32.0833C7.94784 32.0833 7.2612 31.7977 6.69002 31.2265C6.11884 30.6553 5.83325 29.9687 5.83325 29.1666V14.5833C5.83325 13.7812 6.11884 13.0945 6.69002 12.5234C7.2612 11.9522 7.94784 11.6666 8.74992 11.6666H10.2083V8.74992C10.2083 6.73256 10.9192 5.01294 12.3411 3.59106C13.7629 2.16919 15.4826 1.45825 17.4999 1.45825C19.5173 1.45825 21.2369 2.16919 22.6588 3.59106C24.0806 5.01294 24.7916 6.73256 24.7916 8.74992V11.6666H26.2499C27.052 11.6666 27.7386 11.9522 28.3098 12.5234C28.881 13.0945 29.1666 13.7812 29.1666 14.5833V29.1666C29.1666 29.9687 28.881 30.6553 28.3098 31.2265C27.7386 31.7977 27.052 32.0833 26.2499 32.0833H8.74992ZM8.74992 29.1666H26.2499V14.5833H8.74992V29.1666ZM17.4999 24.7916C18.302 24.7916 18.9886 24.506 19.5598 23.9348C20.131 23.3636 20.4166 22.677 20.4166 21.8749C20.4166 21.0728 20.131 20.3862 19.5598 19.815C18.9886 19.2438 18.302 18.9583 17.4999 18.9583C16.6978 18.9583 16.0112 19.2438 15.44 19.815C14.8688 20.3862 14.5833 21.0728 14.5833 21.8749C14.5833 22.677 14.8688 23.3636 15.44 23.9348C16.0112 24.506 16.6978 24.7916 17.4999 24.7916ZM13.1249 11.6666H21.8749V8.74992C21.8749 7.53464 21.4496 6.50165 20.5989 5.65096C19.7482 4.80027 18.7152 4.37492 17.4999 4.37492C16.2846 4.37492 15.2517 4.80027 14.401 5.65096C13.5503 6.50165 13.1249 7.53464 13.1249 8.74992V11.6666Z" fill="black"/>
</svg>
